<svg width="96" height="96" viewBox="0 0 96 96" fill="none" xmlns="http://www.w3.org/2000/svg">
<path opacity="0.2" fill-rule="evenodd" clip-rule="evenodd" d="M49.8462 96.0001C75.3378 96.0001 96 75.3379 96 49.8462C96 24.3545 75.3378 3.69238 49.8462 3.69238C24.3545 3.69238 3.69231 24.3545 3.69231 49.8462C3.69231 75.3379 24.3545 96.0001 49.8462 96.0001ZM49.8462 88.6155C71.2578 88.6155 88.6154 71.2579 88.6154 49.8462C88.6154 28.4345 71.2578 11.077 49.8462 11.077C28.4345 11.077 11.0769 28.4345 11.0769 49.8462C11.0769 71.2579 28.4345 88.6155 49.8462 88.6155Z" fill="black"/>
<path opacity="0.2" fill-rule="evenodd" clip-rule="evenodd" d="M69.8031 14.1563C61.5582 18.432 57.2308 24.5169 57.2308 32.1859C57.2308 39.4117 61.0966 44.4259 68.3077 46.8776V52.4308C67.4658 52.9169 66.7666 53.616 66.2805 54.4579C65.7944 55.2999 65.5385 56.2549 65.5385 57.2271V75.6886C65.5385 77.1575 66.122 78.5663 67.1606 79.6049C68.1993 80.6436 69.608 81.2271 71.0769 81.2271C72.5458 81.2271 73.9545 80.6436 74.9932 79.6049C76.0319 78.5663 76.6154 77.1575 76.6154 75.6886V57.2271C76.616 56.2543 76.3604 55.2985 75.8743 54.4559C75.3881 53.6132 74.6886 52.9135 73.8462 52.4271V16.6154C73.8462 16.14 73.7238 15.6726 73.4909 15.2581C73.2579 14.8437 72.9221 14.4963 72.516 14.2492C72.1098 14.0022 71.6468 13.8638 71.1717 13.8476C70.6965 13.8313 70.2252 13.9376 69.8031 14.1563ZM32.4295 20.1711C32.4765 19.4455 32.8069 18.7674 33.3495 18.2833C33.8921 17.7992 34.6034 17.548 35.3296 17.5839C36.0559 17.6198 36.7389 17.9399 37.2312 18.4751C37.7234 19.0103 37.9854 19.7176 37.9606 20.4443C37.6578 26.4923 37.9717 30.5871 38.7692 32.5071C38.9105 32.9061 39.1564 33.2599 39.4811 33.5314C39.8059 33.8029 40.1976 33.9822 40.6154 34.0505V20.3077C40.6154 19.5733 40.9071 18.8689 41.4265 18.3496C41.9458 17.8302 42.6502 17.5385 43.3846 17.5385C44.1191 17.5385 44.8234 17.8302 45.3428 18.3496C45.8621 18.8689 46.1538 19.5733 46.1538 20.3077V34.0505C46.5716 33.9822 46.9633 33.8029 47.2881 33.5314C47.6128 33.2599 47.8587 32.9061 48 32.5071C48.7975 30.5871 49.1077 26.4886 48.8086 20.4443C48.7838 19.7176 49.0458 19.0103 49.5381 18.4751C50.0303 17.9399 50.7133 17.6198 51.4396 17.5839C52.1659 17.548 52.8771 17.7992 53.4197 18.2833C53.9623 18.7674 54.2928 19.4455 54.3397 20.1711C54.6794 26.9871 54.3175 31.7317 53.1175 34.6265C51.8769 37.6173 49.4252 39.3046 46.1538 39.6333V52.4308C46.9958 52.9169 47.6949 53.616 48.181 54.4579C48.6671 55.2999 48.9231 56.2549 48.9231 57.2271V75.6886C48.9231 77.1575 48.3396 78.5663 47.3009 79.6049C46.2622 80.6436 44.8535 81.2271 43.3846 81.2271C41.9157 81.2271 40.507 80.6436 39.4683 79.6049C38.4297 78.5663 37.8462 77.1575 37.8462 75.6886V57.2271C37.8455 56.2543 38.1011 55.2985 38.5873 54.4559C39.0734 53.6132 39.7729 52.9135 40.6154 52.4271V39.6296C37.344 39.3009 34.8923 37.6136 33.6517 34.6228C32.4517 31.728 32.0862 26.9871 32.4295 20.1711Z" fill="black"/>
<path fill-rule="evenodd" clip-rule="evenodd" d="M63.8031 14.9576C55.8277 18.8862 51.6923 24.4099 51.6923 31.4068C51.6923 38.1268 55.5212 42.6721 62.7692 44.8136V51.6924C62.7692 52.182 62.9637 52.6516 63.31 52.9978C63.6562 53.344 64.1258 53.5385 64.6154 53.5385C65.105 53.5385 65.5746 53.344 65.9208 52.9978C66.267 52.6516 66.4615 52.182 66.4615 51.6924V16.6154C66.4615 16.302 66.3817 15.9937 66.2297 15.7197C66.0776 15.4456 65.8582 15.2148 65.5923 15.0489C65.3263 14.8831 65.0225 14.7877 64.7095 14.7717C64.3965 14.7557 64.0845 14.8197 63.8031 14.9576ZM55.3846 31.4068C55.3846 26.725 57.7846 22.8628 62.7692 19.7465V40.9404C57.7329 39.1791 55.3846 36.0628 55.3846 31.4068Z" fill="black"/>
<path fill-rule="evenodd" clip-rule="evenodd" d="M59.0769 57.2308V75.6924C59.0769 77.1613 59.6604 78.57 60.6991 79.6087C61.7378 80.6473 63.1465 81.2308 64.6154 81.2308C66.0843 81.2308 67.493 80.6473 68.5317 79.6087C69.5703 78.57 70.1538 77.1613 70.1538 75.6924V57.2308C70.1538 55.762 69.5703 54.3532 68.5317 53.3146C67.493 52.2759 66.0843 51.6924 64.6154 51.6924C63.1465 51.6924 61.7378 52.2759 60.6991 53.3146C59.6604 54.3532 59.0769 55.762 59.0769 57.2308ZM64.6154 77.5385C64.1258 77.5385 63.6562 77.344 63.31 76.9978C62.9637 76.6516 62.7692 76.182 62.7692 75.6924V57.2308C62.7692 56.7412 62.9637 56.2716 63.31 55.9254C63.6562 55.5792 64.1258 55.3847 64.6154 55.3847C65.105 55.3847 65.5746 55.5792 65.9208 55.9254C66.267 56.2716 66.4615 56.7412 66.4615 57.2308V75.6924C66.4615 76.182 66.267 76.6516 65.9208 76.9978C65.5746 77.344 65.105 77.5385 64.6154 77.5385Z" fill="black"/>
<path d="M27.8105 20.2154C27.8349 19.7258 28.0529 19.2659 28.4165 18.937C28.78 18.6081 29.2593 18.4371 29.7489 18.4615C30.2386 18.486 30.6984 18.704 31.0273 19.0675C31.3562 19.4311 31.5272 19.9104 31.5028 20.4C31.1926 26.5735 31.5138 30.7754 32.3778 32.8578C33.0535 34.4898 34.3865 35.1988 36.816 35.0622C37.2973 35.0463 37.7658 35.2192 38.1215 35.5439C38.4771 35.8686 38.6918 36.3194 38.7198 36.8002C38.7477 37.281 38.5867 37.7536 38.271 38.1174C37.9554 38.4811 37.5101 38.7071 37.0302 38.7471C33.1237 38.9686 30.288 37.4585 28.9661 34.2757C27.8326 31.5434 27.4782 26.9058 27.8105 20.2154Z" fill="black"/>
<path d="M46.032 20.2153C46.0292 19.9669 45.9762 19.7216 45.8763 19.4941C45.7765 19.2666 45.6317 19.0616 45.4507 18.8914C45.2697 18.7212 45.0562 18.5893 44.823 18.5035C44.5898 18.4178 44.3417 18.38 44.0936 18.3924C43.8455 18.4049 43.6024 18.4673 43.3789 18.5759C43.1555 18.6845 42.9562 18.8371 42.7932 19.0245C42.6301 19.212 42.5065 19.4304 42.4299 19.6667C42.3532 19.9031 42.3251 20.1524 42.3471 20.3999C42.6535 26.5735 42.3323 30.7753 41.4683 32.8578C40.7926 34.4898 39.4597 35.1987 37.0302 35.0621C36.5488 35.0462 36.0804 35.2191 35.7247 35.5438C35.369 35.8685 35.1543 36.3193 35.1264 36.8001C35.0984 37.2809 35.2595 37.7536 35.5751 38.1173C35.8908 38.481 36.3361 38.707 36.816 38.747C40.7225 38.9685 43.5582 37.4584 44.88 34.2756C46.0135 31.5433 46.368 26.9058 46.032 20.2153Z" fill="black"/>
<path d="M35.0769 20.3078C35.0769 19.8182 35.2714 19.3486 35.6176 19.0024C35.9639 18.6562 36.4334 18.4617 36.9231 18.4617C37.4127 18.4617 37.8823 18.6562 38.2285 19.0024C38.5747 19.3486 38.7692 19.8182 38.7692 20.3078V53.5386C38.7692 54.0282 38.5747 54.4978 38.2285 54.844C37.8823 55.1902 37.4127 55.3847 36.9231 55.3847C36.4334 55.3847 35.9639 55.1902 35.6176 54.844C35.2714 54.4978 35.0769 54.0282 35.0769 53.5386V20.3078Z" fill="black"/>
<path fill-rule="evenodd" clip-rule="evenodd" d="M31.3846 57.2308V75.6924C31.3846 77.1613 31.9681 78.57 33.0068 79.6087C34.0455 80.6473 35.4542 81.2308 36.9231 81.2308C38.392 81.2308 39.8007 80.6473 40.8394 79.6087C41.878 78.57 42.4615 77.1613 42.4615 75.6924V57.2308C42.4615 55.762 41.878 54.3532 40.8394 53.3146C39.8007 52.2759 38.392 51.6924 36.9231 51.6924C35.4542 51.6924 34.0455 52.2759 33.0068 53.3146C31.9681 54.3532 31.3846 55.762 31.3846 57.2308ZM36.9231 77.5385C36.4334 77.5385 35.9639 77.344 35.6176 76.9978C35.2714 76.6516 35.0769 76.182 35.0769 75.6924V57.2308C35.0769 56.7412 35.2714 56.2716 35.6176 55.9254C35.9639 55.5792 36.4334 55.3847 36.9231 55.3847C37.4127 55.3847 37.8823 55.5792 38.2285 55.9254C38.5747 56.2716 38.7692 56.7412 38.7692 57.2308V75.6924C38.7692 76.182 38.5747 76.6516 38.2285 76.9978C37.8823 77.344 37.4127 77.5385 36.9231 77.5385Z" fill="black"/>
<path fill-rule="evenodd" clip-rule="evenodd" d="M48 90.4616C71.4498 90.4616 90.4615 71.4499 90.4615 48C90.4615 24.5502 71.4498 5.5385 48 5.5385C24.5502 5.5385 5.53846 24.5502 5.53846 48C5.53846 71.4499 24.5502 90.4616 48 90.4616ZM48 94.1539C73.4917 94.1539 94.1538 73.4917 94.1538 48C94.1538 22.5083 73.4917 1.84619 48 1.84619C22.5083 1.84619 1.84615 22.5083 1.84615 48C1.84615 73.4917 22.5083 94.1539 48 94.1539Z" fill="black"/>
</svg>
